<?xml version="1.0" encoding="utf-8"?>
<!-- Generator: Adobe Illustrator 22.1.0, SVG Export Plug-In . SVG Version: 6.00 Build 0)  -->
<svg version="1.1" id="Layer_1" xmlns="http://www.w3.org/2000/svg" xmlns:xlink="http://www.w3.org/1999/xlink" x="0px" y="0px"
	 viewBox="0 0 256 256" style="enable-background:new 0 0 256 256;" xml:space="preserve">
<style type="text/css">
	.st0{fill:#9B5C8F;}
	.st1{fill:#FFFFFF;}
	.st2{fill:#00E59E;}
	.st3{fill:#013A51;}
	.st4{fill:none;stroke:#231F20;stroke-width:2;stroke-miterlimit:10;}
</style>
<g>
	<path class="st0" d="M43.7,55.9h49.6c3.1,0,5.7,2.5,5.7,5.7v18.9c0,3.1-2.5,5.7-5.7,5.7H75.5l2.4,6l-10.7-6H43.7
		c-3.1,0-5.7-2.5-5.7-5.7V61.5C38,58.4,40.5,55.9,43.7,55.9z"/>
	<path class="st1" d="M41,61c0.3-0.5,0.9-0.7,1.6-0.8c1.3-0.1,2,0.5,2.2,1.8c0.8,5.2,1.6,9.6,2.5,13.2l5.5-10.4
		c0.5-0.9,1.1-1.4,1.9-1.5c1.1-0.1,1.8,0.6,2,2.1c0.6,3.3,1.4,6.1,2.4,8.5c0.6-6.3,1.7-10.9,3.3-13.7c0.4-0.7,0.9-1,1.6-1.1
		c0.6,0,1.1,0.1,1.6,0.5s0.7,0.8,0.8,1.4c0,0.4,0,0.8-0.2,1.2c-1,1.8-1.8,4.8-2.4,9c-0.6,4.1-0.8,7.2-0.7,9.5c0,0.6,0,1.2-0.3,1.6
		c-0.3,0.5-0.7,0.8-1.3,0.9c-0.6,0-1.3-0.2-2-0.9c-2.3-2.4-4.2-5.9-5.5-10.6C52.2,75,51,77.4,50.3,79c-1.5,2.8-2.7,4.3-3.8,4.3
		c-0.7,0-1.2-0.5-1.7-1.7c-1.3-3.3-2.6-9.6-4.1-18.9C40.6,62,40.7,61.5,41,61z"/>
	<path class="st1" d="M94.6,64.9c-0.9-1.6-2.2-2.5-4-2.9c-0.5-0.1-0.9-0.1-1.3-0.1c-2.4,0-4.3,1.2-5.9,3.7c-1.3,2.1-1.9,4.5-1.9,7
		c0,1.9,0.4,3.6,1.2,4.9c0.9,1.6,2.2,2.5,4,2.9c0.5,0.1,0.9,0.1,1.3,0.1c2.4,0,4.4-1.2,5.9-3.7c1.3-2.1,1.9-4.5,1.9-7.1
		C95.8,67.9,95.4,66.3,94.6,64.9L94.6,64.9z M91.5,71.8c-0.3,1.6-1,2.9-1.9,3.7c-0.7,0.6-1.4,0.9-2,0.8c-0.6-0.1-1.1-0.6-1.5-1.6
		c-0.3-0.8-0.4-1.5-0.4-2.3c0-0.6,0-1.2,0.2-1.8c0.2-1,0.6-2,1.3-3c0.8-1.2,1.7-1.7,2.6-1.5c0.6,0.1,1.1,0.6,1.5,1.6
		c0.3,0.8,0.4,1.5,0.4,2.3C91.7,70.6,91.6,71.3,91.5,71.8L91.5,71.8z"/>
	<path class="st1" d="M79,64.9c-0.9-1.6-2.2-2.5-4-2.9c-0.5-0.1-0.9-0.1-1.3-0.1c-2.4,0-4.3,1.2-5.9,3.7c-1.3,2.1-1.9,4.5-1.9,7
		c0,1.9,0.4,3.6,1.2,4.9c0.9,1.6,2.2,2.5,4,2.9c0.5,0.1,0.9,0.1,1.3,0.1c2.4,0,4.4-1.2,5.9-3.7c1.3-2.1,1.9-4.5,1.9-7.1
		C80.2,67.9,79.8,66.3,79,64.9L79,64.9z M75.9,71.8c-0.3,1.6-1,2.9-1.9,3.7c-0.7,0.6-1.4,0.9-2,0.8c-0.6-0.1-1.1-0.6-1.5-1.6
		c-0.3-0.8-0.4-1.5-0.4-2.3c0-0.6,0-1.2,0.2-1.8c0.2-1,0.6-2,1.3-3c0.8-1.2,1.7-1.7,2.6-1.5c0.6,0.1,1.1,0.6,1.5,1.6
		c0.3,0.8,0.4,1.5,0.4,2.3C76,70.6,76,71.3,75.9,71.8L75.9,71.8z"/>
	<g>
		<g>
			<path d="M105.3,64.7c-1.7,1.6-2.5,3.7-2.5,6.3c0,2.7,0.8,4.9,2.5,6.6c1.6,1.7,3.8,2.5,6.5,2.5c0.8,0,1.6-0.1,2.6-0.4v-4
				c-0.9,0.2-1.6,0.4-2.3,0.4c-1.3,0-2.4-0.4-3.2-1.3c-0.8-0.9-1.2-2.1-1.2-3.6c0-1.4,0.4-2.6,1.2-3.5c0.8-0.9,1.8-1.4,3-1.4
				c0.8,0,1.6,0.1,2.5,0.4v-4c-0.8-0.2-1.7-0.3-2.7-0.3C109,62.2,106.9,63.1,105.3,64.7z M122.6,62.2c-2.3,0-4.1,0.8-5.4,2.3
				c-1.3,1.5-1.9,3.7-1.9,6.4c0,3,0.6,5.2,1.9,6.8c1.3,1.6,3.1,2.4,5.6,2.4c2.4,0,4.2-0.8,5.5-2.4c1.3-1.6,1.9-3.8,1.9-6.6
				s-0.6-5-1.9-6.6C126.9,63,125,62.2,122.6,62.2z M124.5,75.2c-0.4,0.7-1.1,1-2,1c-0.8,0-1.4-0.3-1.8-1c-0.4-0.7-0.6-2.1-0.6-4.2
				c0-3.3,0.8-4.9,2.5-4.9c1.7,0,2.6,1.6,2.6,5C125.2,73.1,125,74.5,124.5,75.2z M142.5,62.7l-0.9,3.8c-0.2,1-0.4,2-0.6,3l-0.5,2.6
				c-0.5-2.6-1.1-5.8-1.9-9.4h-5.8l-2.2,17h4.3L136,68l3,11.7h3.1l2.8-11.7l1.2,11.7h4.5l-2.3-17L142.5,62.7L142.5,62.7z
				 M163.2,62.7l-0.9,3.8c-0.2,1-0.4,2-0.6,3l-0.5,2.6c-0.5-2.6-1.1-5.8-1.9-9.4h-5.8l-2.2,17h4.3l1.2-11.7l3,11.7h3.1l2.8-11.7
				l1.2,11.7h4.5l-2.3-17H163.2z M177.3,73h4.1v-3.5h-4.1v-3.1h4.7v-3.6h-9.3v17h9.3v-3.6h-4.7V73z M195,70.3
				c0.5-0.8,0.7-1.6,0.7-2.4c0-1.6-0.6-2.9-1.9-3.8c-1.2-0.9-3-1.4-5.1-1.4h-5.3v17h4.6V72h0.1l3.7,7.7h4.8l-3.7-7.7
				C193.8,71.6,194.5,71.1,195,70.3z M187.9,70v-4c1.1,0,1.9,0.2,2.3,0.5c0.5,0.3,0.7,0.9,0.7,1.7C191,69.4,190,70,187.9,70z
				 M198.4,64.7c-1.7,1.6-2.5,3.7-2.5,6.3c0,2.7,0.8,4.9,2.5,6.6c1.6,1.7,3.8,2.5,6.5,2.5c0.8,0,1.6-0.1,2.6-0.4v-4
				c-0.9,0.2-1.6,0.4-2.3,0.4c-1.3,0-2.4-0.4-3.2-1.3c-0.8-0.9-1.2-2.1-1.2-3.6c0-1.4,0.4-2.6,1.2-3.5c0.8-0.9,1.8-1.4,3-1.4
				c0.8,0,1.6,0.1,2.5,0.4v-4c-0.8-0.2-1.7-0.3-2.7-0.3C202.2,62.2,200.1,63.1,198.4,64.7z M213.3,76V73h4.1v-3.5h-4.1v-3.1h4.7
				v-3.6h-9.3v17h9.3v-3.6L213.3,76L213.3,76z"/>
		</g>
	</g>
</g>
<path class="st2" d="M54.3,181.7l5.9-10.3c0.2-0.3,0.2-0.7,0-1.1c-0.2-0.3-0.5-0.5-0.9-0.5H46.8c0,0,0,0,0,0c-0.4,0-0.7,0.2-0.9,0.5
	l-6.4,10.8c-0.2,0.3-0.2,0.7,0,1.1l6.4,10.8c0.2,0.3,0.5,0.5,0.9,0.5c0,0,0,0,0,0h12.4c0.4,0,0.7-0.2,0.9-0.5c0.2-0.3,0.2-0.7,0-1.1
	L54.3,181.7z M53,179.5l-4.4-7.6h8.8L53,179.5z M46.8,172.9l5,8.7l-5,8.7l-5.1-8.7L46.8,172.9z M48.7,191.4l4.4-7.6l4.4,7.6H48.7z"
	/>
<g>
	<circle class="st3" cx="172.8" cy="188.9" r="1.8"/>
	<g>
		<path class="st3" d="M70.3,190.2c-0.8-0.3-1.5-0.8-2-1.4c-0.6-0.6-1-1.3-1.3-2.1c-0.3-0.8-0.5-1.7-0.5-2.6s0.1-1.8,0.4-2.6
			c0.3-0.8,0.7-1.5,1.3-2.1c0.6-0.6,1.2-1.1,2-1.4c0.8-0.3,1.6-0.5,2.6-0.5c0.8,0,1.6,0.1,2.2,0.3c0.7,0.2,1.2,0.5,1.7,1
			c0.5,0.4,0.9,0.9,1.2,1.5c0.3,0.6,0.5,1.2,0.6,1.9h-3.3c-0.1-0.6-0.4-1-0.8-1.4c-0.4-0.4-0.9-0.6-1.5-0.6c-1,0-1.8,0.4-2.3,1.1
			c-0.5,0.7-0.8,1.7-0.8,2.9c0,1.2,0.2,2.2,0.7,2.9c0.5,0.7,1.2,1.1,2.3,1.1c0.7,0,1.3-0.2,1.7-0.5c0.4-0.4,0.7-0.9,0.8-1.6h3.2
			c0,0.7-0.2,1.3-0.5,1.9c-0.3,0.6-0.7,1.1-1.2,1.5c-0.5,0.4-1.1,0.8-1.8,1c-0.7,0.3-1.4,0.4-2.3,0.4
			C72,190.7,71.1,190.5,70.3,190.2z"/>
		<path class="st3" d="M83.9,179.3c0.5-0.7,1-1.2,1.5-1.5c0.6-0.3,1.3-0.5,2.2-0.5c0.7,0,1.3,0.1,1.8,0.4c0.5,0.2,1,0.6,1.4,1
			c0.4,0.4,0.7,0.9,0.9,1.5c0.2,0.6,0.3,1.2,0.3,1.9v8.3h-3.4v-7.8c0-0.7-0.2-1.3-0.6-1.7c-0.4-0.4-0.9-0.6-1.6-0.6
			c-0.7,0-1.4,0.3-1.8,0.8c-0.5,0.5-0.7,1.2-0.7,2.1v7.2h-3.4v-17.7h3.4L83.9,179.3L83.9,179.3z"/>
		<path class="st3" d="M97.6,190.2c-0.8-0.3-1.5-0.8-2.1-1.4c-0.6-0.6-1-1.3-1.3-2.1c-0.3-0.8-0.4-1.7-0.4-2.6
			c0-0.9,0.2-1.8,0.5-2.6c0.3-0.8,0.7-1.5,1.3-2.1c0.6-0.6,1.2-1.1,2-1.4c0.8-0.3,1.6-0.5,2.5-0.5c1,0,1.9,0.2,2.7,0.6
			c0.8,0.4,1.4,0.9,2,1.6c0.5,0.7,0.9,1.5,1.2,2.4c0.3,0.9,0.4,2,0.4,3.1h-9.2c0.1,1,0.5,1.8,1,2.3c0.5,0.6,1.3,0.8,2.2,0.8
			c0.7,0,1.2-0.1,1.6-0.4c0.4-0.3,0.7-0.7,0.9-1.1h3.3c-0.1,0.6-0.3,1.1-0.6,1.6c-0.3,0.5-0.7,0.9-1.2,1.3c-0.5,0.4-1.1,0.7-1.7,0.9
			c-0.7,0.2-1.4,0.3-2.2,0.3C99.3,190.7,98.4,190.5,97.6,190.2z M98.1,180.6c-0.5,0.5-0.8,1.1-0.9,2h5.6c0-0.8-0.3-1.5-0.8-2
			s-1.1-0.8-1.9-0.8C99.2,179.9,98.5,180.1,98.1,180.6z"/>
		<path class="st3" d="M111.3,190.2c-0.8-0.3-1.5-0.8-2-1.4c-0.6-0.6-1-1.3-1.3-2.1c-0.3-0.8-0.5-1.7-0.5-2.6s0.1-1.8,0.4-2.6
			c0.3-0.8,0.7-1.5,1.3-2.1c0.6-0.6,1.2-1.1,2-1.4c0.8-0.3,1.6-0.5,2.6-0.5c0.8,0,1.6,0.1,2.2,0.3c0.7,0.2,1.2,0.5,1.7,1
			s0.9,0.9,1.2,1.5c0.3,0.6,0.5,1.2,0.6,1.9h-3.3c-0.1-0.6-0.4-1-0.8-1.4c-0.4-0.4-0.9-0.6-1.5-0.6c-1,0-1.8,0.4-2.3,1.1
			c-0.5,0.7-0.8,1.7-0.8,2.9c0,1.2,0.2,2.2,0.7,2.9c0.5,0.7,1.2,1.1,2.3,1.1c0.7,0,1.3-0.2,1.7-0.5c0.4-0.4,0.7-0.9,0.8-1.6h3.2
			c0,0.7-0.2,1.3-0.5,1.9c-0.3,0.6-0.7,1.1-1.2,1.5c-0.5,0.4-1.1,0.8-1.8,1s-1.4,0.4-2.3,0.4C113,190.7,112.1,190.5,111.3,190.2z"/>
		<path class="st3" d="M124.9,186v4.3h-3.3v-17.7h3.3v9.8l4.5-4.8h4l-4.7,4.8l5.2,7.9h-4.1l-3.6-5.8L124.9,186z"/>
		<path class="st3" d="M137.7,190.2c-0.8-0.3-1.5-0.8-2.1-1.4c-0.6-0.6-1-1.3-1.4-2.1c-0.3-0.8-0.5-1.7-0.5-2.6s0.2-1.8,0.5-2.6
			c0.3-0.8,0.8-1.5,1.4-2.1c0.6-0.6,1.3-1.1,2.1-1.4c0.8-0.3,1.7-0.5,2.7-0.5c1,0,1.9,0.2,2.7,0.5c0.8,0.3,1.5,0.8,2.1,1.4
			c0.6,0.6,1,1.3,1.4,2.1c0.3,0.8,0.5,1.7,0.5,2.6s-0.2,1.8-0.5,2.6c-0.3,0.8-0.8,1.5-1.4,2.1c-0.6,0.6-1.3,1.1-2.1,1.4
			c-0.8,0.3-1.7,0.5-2.7,0.5C139.4,190.7,138.5,190.5,137.7,190.2z M142.8,187c0.6-0.8,0.8-1.8,0.8-3c0-1.2-0.3-2.2-0.8-3
			c-0.6-0.8-1.3-1.1-2.4-1.1c-1,0-1.8,0.4-2.4,1.1c-0.6,0.8-0.8,1.8-0.8,3c0,1.2,0.3,2.2,0.8,3c0.6,0.8,1.3,1.1,2.4,1.1
			C141.4,188.1,142.2,187.7,142.8,187z"/>
		<path class="st3" d="M156.8,188.8L156.8,188.8c-0.5,0.6-1,1-1.5,1.3c-0.6,0.3-1.3,0.5-2.2,0.5c-1.4,0-2.5-0.4-3.3-1.2
			c-0.8-0.8-1.1-1.9-1.1-3.3v-8.5h3.3v7.9c0,0.7,0.2,1.3,0.5,1.7c0.3,0.4,0.9,0.6,1.6,0.6c0.8,0,1.4-0.3,1.9-0.8
			c0.5-0.5,0.7-1.2,0.7-2.1v-7.3h3.4v12.7h-3.2V188.8z"/>
		<path class="st3" d="M163.4,177.6v-4h3.3v4h2.2v2.2h-2.2v6.7c0,0.5,0.1,0.8,0.3,1c0.2,0.2,0.5,0.3,0.9,0.3h0.6c0.1,0,0.2,0,0.3,0
			v2.5c-0.2,0-0.3,0-0.5,0c-0.2,0-0.4,0-0.7,0h-0.9c-0.4,0-0.8,0-1.2-0.1c-0.4-0.1-0.8-0.3-1.1-0.5c-0.3-0.2-0.6-0.5-0.8-0.9
			c-0.2-0.4-0.3-0.9-0.3-1.5v-7.4h-1.8v-2.2H163.4z"/>
		<path class="st3" d="M179.5,190.1c-0.7-0.3-1.3-0.8-1.8-1.4c-0.5-0.6-0.9-1.3-1.1-2.1c-0.3-0.8-0.4-1.7-0.4-2.7s0.1-1.8,0.4-2.7
			c0.3-0.8,0.6-1.5,1.1-2.1c0.5-0.6,1.1-1.1,1.8-1.4c0.7-0.3,1.5-0.5,2.5-0.5c1.4,0,2.6,0.4,3.5,1.1c0.9,0.7,1.5,1.7,1.7,3.1h-1.5
			c-0.2-1-0.6-1.7-1.2-2.2c-0.6-0.5-1.4-0.7-2.4-0.7c-0.7,0-1.4,0.1-1.9,0.4c-0.5,0.3-1,0.7-1.3,1.2c-0.3,0.5-0.6,1.1-0.8,1.7
			c-0.2,0.7-0.2,1.4-0.2,2.1s0.1,1.4,0.3,2.1c0.2,0.7,0.4,1.2,0.8,1.7c0.3,0.5,0.8,0.9,1.3,1.2c0.5,0.3,1.2,0.4,1.9,0.4
			c1.1,0,2-0.3,2.6-0.9c0.7-0.6,1-1.4,1.2-2.5h1.5c-0.1,1.5-0.7,2.6-1.6,3.4c-0.9,0.8-2.1,1.3-3.7,1.3
			C181,190.6,180.2,190.5,179.5,190.1z"/>
		<path class="st3" d="M192,190.1c-0.7-0.3-1.4-0.8-1.9-1.4c-0.5-0.6-0.9-1.3-1.2-2.1c-0.3-0.8-0.4-1.7-0.4-2.7s0.1-1.8,0.4-2.7
			c0.3-0.8,0.7-1.5,1.2-2.1c0.5-0.6,1.1-1.1,1.9-1.4c0.7-0.3,1.6-0.5,2.5-0.5c0.9,0,1.7,0.2,2.5,0.5c0.7,0.3,1.3,0.8,1.9,1.4
			c0.5,0.6,0.9,1.3,1.2,2.1c0.3,0.8,0.4,1.7,0.4,2.7s-0.1,1.8-0.4,2.7c-0.3,0.8-0.7,1.5-1.2,2.1c-0.5,0.6-1.1,1.1-1.9,1.4
			c-0.7,0.3-1.5,0.5-2.5,0.5C193.6,190.6,192.7,190.5,192,190.1z M196.4,188.9c0.5-0.3,1-0.7,1.4-1.2c0.4-0.5,0.6-1.1,0.8-1.7
			c0.2-0.7,0.3-1.4,0.3-2.1s-0.1-1.4-0.3-2.1c-0.2-0.7-0.5-1.2-0.8-1.7c-0.4-0.5-0.8-0.9-1.4-1.2c-0.5-0.3-1.2-0.4-1.9-0.4
			c-0.7,0-1.4,0.1-1.9,0.4c-0.5,0.3-1,0.7-1.4,1.2c-0.4,0.5-0.6,1.1-0.8,1.7c-0.2,0.7-0.3,1.4-0.3,2.1s0.1,1.4,0.3,2.1
			c0.2,0.7,0.5,1.2,0.8,1.7c0.4,0.5,0.8,0.9,1.4,1.2c0.5,0.3,1.2,0.4,1.9,0.4C195.2,189.3,195.8,189.2,196.4,188.9z"/>
		<path class="st3" d="M204.1,177.5v1.9h0c0.4-0.6,0.9-1.2,1.6-1.6c0.6-0.4,1.4-0.6,2.3-0.6c0.8,0,1.5,0.2,2.1,0.6
			c0.6,0.4,1,1,1.3,1.7h0c0.4-0.7,1-1.3,1.7-1.7c0.7-0.4,1.5-0.6,2.4-0.6c0.5,0,1.1,0.1,1.5,0.3c0.5,0.2,0.9,0.4,1.2,0.8
			c0.3,0.3,0.6,0.8,0.8,1.2c0.2,0.5,0.3,1.1,0.3,1.7v9.1h-1.5v-9c0-1-0.3-1.7-0.8-2.1c-0.5-0.5-1.1-0.7-1.9-0.7
			c-0.5,0-0.9,0.1-1.3,0.2c-0.4,0.2-0.8,0.4-1.1,0.7c-0.3,0.3-0.6,0.7-0.8,1.1c-0.2,0.5-0.3,1-0.3,1.5v8.1h-1.5v-9
			c0-1-0.2-1.7-0.7-2.1c-0.5-0.5-1.1-0.7-1.8-0.7c-0.5,0-0.9,0.1-1.3,0.3c-0.4,0.2-0.8,0.4-1.1,0.8c-0.3,0.3-0.6,0.7-0.8,1.1
			c-0.2,0.4-0.3,0.9-0.3,1.4v8.1h-1.5v-12.8H204.1z"/>
	</g>
</g>
<line class="st4" x1="98" y1="128" x2="158" y2="128"/>
</svg>
